{"title":"Everything.Must.Go.2010.BRRip.XviD.Ac3.Feel-Free","uid":6618236,"size":1173545717,"categoryP":"video","categoryS":"movies","magnet":"?xt=urn:btih:6d3b04763a9c43253a79f210dcc225d62b3c8573&amp;dn=Everything.Must.Go.2010.BRRip.XviD.Ac3.Feel-Free&amp;tr=udp%3A%2F%2Ftracker.openbittorrent.com%3A80&amp;tr=udp%3A%2F%2Fopen.demonii.com%3A1337&amp;tr=udp%3A%2F%2Ftracker.coppersurfer.tk%3A6969&amp;tr=udp%3A%2F%2Fexodus.desync.com%3A6969","seeders":0,"leechers":1,"uploader":".BONE.","files":9,"time":1313875693,"description":"Genre:Comedy | Drama\nLanguage:English\n &lt;a href=&quot;\nhttp://www.imdb.com/title/tt1531663/&quot; rel=&quot;nofollow&quot; target=&quot;_NEW&quot;&gt;\nhttp://www.imdb.com/title/tt1531663/&lt;/a&gt;\n\nSource:BluRay.720p.x264.DTS-HDChina Thanks!\n\nFormat : AVI\nFormat/Info : Audio Video Interleave\nFile size : 1.09 GiB\nDuration : 1h 37mn\nOverall bit rate : 1 609 Kbps\n\nVideo\nID : 0\nFormat : MPEG-4 Visual\nFormat profile : Advanced Simple@L5\nFormat settings, BVOP : Yes\nFormat settings, QPel : No\nFormat settings, GMC : No warppoints\nFormat settings, Matrix : Default (H.263)\nCodec ID : XVID\nCodec ID/Hint : XviD\nDuration : 1h 37mn\nBit rate : 1 152 Kbps\nWidth : 640 pixels\nHeight : 264 pixels\nDisplay aspect ratio : 2.40:1\nFrame rate : 23.976 fps\nColor space : YUV\nChroma subsampling : 4:2:0\nBit depth : 8 bits\nScan type : Progressive\nBits/(Pixel*Frame) : 0.284\nStream size : 800 MiB (72%)\nWriting library : XviD 1.2.1 (UTC 2008-12-04)\n\nAudio\nID : 1\nFormat : AC-3\nFormat/Info : Audio Coding 3\nMode extension : CM (complete main)\nCodec ID : 2000\nDuration : 1h 37mn\nBit rate mode : Constant\nBit rate : 448 Kbps\nChannel(s) : 6 channels\nChannel positions : Front: L C R, Side: L R, LFE\nSampling rate : 48.0 KHz\nBit depth : 16 bits\nStream size : 311 MiB (28%)\nAlignment : Aligned on interleaves\nInterleave, duration : 42 ms (1.00 video frame)\nInterleave, preload duration : 512 ms\n\n\nPlot:\nWhen an alcoholic relapses, causing him to lose his wife and his job, he holds a yard sale on his front lawn in an attempt to start over. A new neighbor might be the key to his return to form.\n &lt;a href=&quot;\nhttp://www.pix2links.com/images/68790134234429588873.png&quot; rel=&quot;nofollow&quot; target=&quot;_NEW&quot;&gt;\nhttp://www.pix2links.com/images/68790134234429588873.png&lt;/a&gt; &lt;a href=&quot;\nhttp://www.pix2links.com/images/26573995278629755570.png&quot; rel=&quot;nofollow&quot; target=&quot;_NEW&quot;&gt;\nhttp://www.pix2links.com/images/26573995278629755570.png&lt;/a&gt; &lt;a href=&quot;\nhttp://www.pix2links.com/images/01381046945374152256.png&quot; rel=&quot;nofollow&quot; target=&quot;_NEW&quot;&gt;\nhttp://www.pix2links.com/images/01381046945374152256.png&lt;/a&gt; &lt;a href=&quot;\nhttp://www.pix2links.com/images/60699790348585487637.png&quot; rel=&quot;nofollow&quot; target=&quot;_NEW&quot;&gt;\nhttp://www.pix2links.com/images/60699790348585487637.png&lt;/a&gt; &lt;a href=&quot;\nhttp://www.pix2links.com/images/47831354610091342719.png&quot; rel=&quot;nofollow&quot; target=&quot;_NEW&quot;&gt;\nhttp://www.pix2links.com/images/47831354610091342719.png&lt;/a&gt;","torrent":{"xt":"urn:btih:6d3b04763a9c43253a79f210dcc225d62b3c8573","amp;dn":"Everything.Must.Go.2010.BRRip.XviD.Ac3.Feel-Free","amp;tr":["udp%3A%2F%2Ftracker.openbittorrent.com%3A80","udp%3A%2F%2Fopen.demonii.com%3A1337","udp%3A%2F%2Ftracker.coppersurfer.tk%3A6969","udp%3A%2F%2Fexodus.desync.com%3A6969"],"infoHash":"6d3b04763a9c43253a79f210dcc225d62b3c8573","infoHashBuffer":{"type":"Buffer","data":[109,59,4,118,58,156,67,37,58,121,242,16,220,194,37,214,43,60,133,115]},"announce":[],"urlList":[]}}